<svg xmlns="http://www.w3.org/2000/svg" id="fig" role="img" aria-label="Shipyard block logistics, three fleet options and the equal-service comparison" viewBox="0 0 1000 744" width="1000" height="744" font-family="'Times New Roman', Times, serif"><defs><marker id="ah" viewBox="0 0 10 10" refX="9" refY="5" markerWidth="5.5" markerHeight="5.5" orient="auto-start-reverse" markerUnits="strokeWidth"><path d="M0 0L10 5L0 10Z" fill="#52514E" /></marker><marker id="ahk" viewBox="0 0 10 10" refX="9" refY="5" markerWidth="5" markerHeight="5" orient="auto-start-reverse" markerUnits="strokeWidth"><path d="M0 0L10 5L0 10Z" fill="#2A78D6" /></marker><marker id="ahn" viewBox="0 0 10 10" refX="9" refY="5" markerWidth="5" markerHeight="5" orient="auto-start-reverse" markerUnits="strokeWidth"><path d="M0 0L10 5L0 10Z" fill="rgb(23,66,118)" /></marker><clipPath id="yardClip"><rect x="13" y="122" width="315.3333333333333" height="609" /></clipPath><clipPath id="dockClip"><path d="M248.0 502.0L320.7 544.0L130.2 654.0L57.5 612.0Z" fill="#000" stroke="none" stroke-width="0.7" stroke-linejoin="round" /></clipPath></defs><rect width="1000" height="744" fill="#FFFFFF" /><g data-box="panel"><rect x="12" y="12" width="317.3333333333333" height="720" rx="0" fill="#FFFFFF" stroke="#C9C8C4" stroke-width="1.2" /><rect x="12" y="12" width="317.3333333333333" height="46" fill="rgb(23,66,118)" /><path d="M54 21V49" stroke="#FFFFFF" stroke-width="1.4" stroke-opacity="0.75" /><text x="33" y="43" font-size="21.352355719997163" fill="#FFFFFF" font-weight="700" text-anchor="middle"><tspan>1</tspan></text><text x="66" y="43" font-size="21.352355719997163" fill="#FFFFFF" font-weight="700" text-anchor="start"><tspan>Shipyard block logistics</tspan></text><text x="26" y="86" font-size="18.14950236199759" fill="#0B0B0B" font-weight="400" text-anchor="start"><tspan>Each block moves several times</tspan></text><text x="26" y="108" font-size="18.14950236199759" fill="#0B0B0B" font-weight="400" text-anchor="start"><tspan>between shops, stockyard and dock.</tspan></text><g clip-path="url(#yardClip)"><rect x="12" y="122" width="317.3333333333333" height="610" fill="rgb(245,245,244)" /><path d="M41.2 206.0L94.9 237.0L94.9 199.0L41.2 168.0Z" fill="rgb(238,238,237)" stroke="rgb(148,147,145)" stroke-width="0.6" stroke-linejoin="round" /><path d="M134.8 214.0L94.9 237.0L94.9 199.0L134.8 176.0Z" fill="rgb(203,203,202)" stroke="rgb(148,147,145)" stroke-width="0.6" stroke-linejoin="round" /><path d="M81.1 145.0L134.8 176.0L94.9 199.0L41.2 168.0Z" fill="rgb(220,220,220)" stroke="rgb(148,147,145)" stroke-width="0.6" stroke-linejoin="round" /><path d="M51.6 212.0L70.7 223.0L70.7 197.0L51.6 186.0Z" fill="rgb(130,130,128)" stroke="none" stroke-width="0.7" stroke-linejoin="round" /><path d="M132.1 189.0L147.7 198.0L147.7 189.0L132.1 180.0Z" fill="rgb(203,203,202)" stroke="rgb(148,147,145)" stroke-width="0.6" stroke-linejoin="round" /><path d="M159.9 191.0L147.7 198.0L147.7 189.0L159.9 182.0Z" fill="rgb(175,175,174)" stroke="rgb(148,147,145)" stroke-width="0.6" stroke-linejoin="round" /><path d="M144.3 173.0L159.9 182.0L147.7 189.0L132.1 180.0Z" fill="rgb(234,234,234)" stroke="rgb(148,147,145)" stroke-width="0.6" stroke-linejoin="round" /><path d="M149.0 201.5L162.9 209.5L162.9 201.5L149.0 193.5Z" fill="rgb(203,203,202)" stroke="rgb(148,147,145)" stroke-width="0.6" stroke-linejoin="round" /><path d="M175.0 202.5L162.9 209.5L162.9 201.5L175.0 194.5Z" fill="rgb(175,175,174)" stroke="rgb(148,147,145)" stroke-width="0.6" stroke-linejoin="round" /><path d="M161.1 186.5L175.0 194.5L162.9 201.5L149.0 193.5Z" fill="rgb(234,234,234)" stroke="rgb(148,147,145)" stroke-width="0.6" stroke-linejoin="round" /><path d="M216.1 220.5L264.6 248.5L264.6 206.5L216.1 178.5Z" fill="rgb(229,239,250)" stroke="rgb(149,188,235)" stroke-width="0.6" stroke-linejoin="round" /><path d="M307.9 223.5L264.6 248.5L264.6 206.5L307.9 181.5Z" fill="rgb(191,215,243)" stroke="rgb(149,188,235)" stroke-width="0.6" stroke-linejoin="round" /><path d="M259.4 153.5L307.9 181.5L264.6 206.5L216.1 178.5Z" fill="rgb(212,228,247)" stroke="rgb(149,188,235)" stroke-width="0.6" stroke-linejoin="round" /><path d="M224.8 225.5L245.5 237.5L245.5 209.5L224.8 197.5Z" fill="rgb(123,171,230)" stroke="none" stroke-width="0.7" stroke-linejoin="round" /><path d="M140.1 346.5L162.6 359.5L162.6 345.5L140.1 332.5Z" fill="rgb(203,203,202)" stroke="rgb(148,147,145)" stroke-width="0.6" stroke-linejoin="round" /><path d="M179.9 349.5L162.6 359.5L162.6 345.5L179.9 335.5Z" fill="rgb(175,175,174)" stroke="rgb(148,147,145)" stroke-width="0.6" stroke-linejoin="round" /><path d="M157.4 322.5L179.9 335.5L162.6 345.5L140.1 332.5Z" fill="rgb(234,234,234)" stroke="rgb(148,147,145)" stroke-width="0.6" stroke-linejoin="round" /><path d="M171.5 336.0L197.5 351.0L197.5 335.0L171.5 320.0Z" fill="rgb(203,203,202)" stroke="rgb(148,147,145)" stroke-width="0.6" stroke-linejoin="round" /><path d="M216.5 340.0L197.5 351.0L197.5 335.0L216.5 324.0Z" fill="rgb(175,175,174)" stroke="rgb(148,147,145)" stroke-width="0.6" stroke-linejoin="round" /><path d="M190.5 309.0L216.5 324.0L197.5 335.0L171.5 320.0Z" fill="rgb(234,234,234)" stroke="rgb(148,147,145)" stroke-width="0.6" stroke-linejoin="round" /><path d="M204.9 359.0L225.7 371.0L225.7 359.0L204.9 347.0Z" fill="rgb(203,203,202)" stroke="rgb(148,147,145)" stroke-width="0.6" stroke-linejoin="round" /><path d="M243.1 361.0L225.7 371.0L225.7 359.0L243.1 349.0Z" fill="rgb(175,175,174)" stroke="rgb(148,147,145)" stroke-width="0.6" stroke-linejoin="round" /><path d="M222.3 337.0L243.1 349.0L225.7 359.0L204.9 347.0Z" fill="rgb(234,234,234)" stroke="rgb(148,147,145)" stroke-width="0.6" stroke-linejoin="round" /><path d="M142.6 376.5L168.6 391.5L168.6 373.5L142.6 358.5Z" fill="rgb(203,203,202)" stroke="rgb(148,147,145)" stroke-width="0.6" stroke-linejoin="round" /><path d="M189.4 379.5L168.6 391.5L168.6 373.5L189.4 361.5Z" fill="rgb(175,175,174)" stroke="rgb(148,147,145)" stroke-width="0.6" stroke-linejoin="round" /><path d="M163.4 346.5L189.4 361.5L168.6 373.5L142.6 358.5Z" fill="rgb(234,234,234)" stroke="rgb(148,147,145)" stroke-width="0.6" stroke-linejoin="round" /><path d="M184.1 382.5L206.6 395.5L206.6 381.5L184.1 368.5Z" fill="rgb(203,203,202)" stroke="rgb(148,147,145)" stroke-width="0.6" stroke-linejoin="round" /><path d="M223.9 385.5L206.6 395.5L206.6 381.5L223.9 371.5Z" fill="rgb(175,175,174)" stroke="rgb(148,147,145)" stroke-width="0.6" stroke-linejoin="round" /><path d="M201.4 358.5L223.9 371.5L206.6 381.5L184.1 368.5Z" fill="rgb(234,234,234)" stroke="rgb(148,147,145)" stroke-width="0.6" stroke-linejoin="round" /><path d="M132 272Q177 300 226 272" fill="none" stroke="rgb(23,66,118)" stroke-width="1.6" stroke-dasharray="5 4" marker-end="url(#ahn)" /><path d="M294 272Q316 308 310 340" fill="none" stroke="rgb(23,66,118)" stroke-width="1.6" stroke-dasharray="5 4" marker-end="url(#ahn)" /><path d="M296 406Q242 454 116 456" fill="none" stroke="rgb(23,66,118)" stroke-width="1.6" stroke-dasharray="5 4" marker-end="url(#ahn)" /><path d="M64 462Q38 434 52 404" fill="none" stroke="rgb(23,66,118)" stroke-width="1.6" stroke-dasharray="5 4" marker-end="url(#ahn)" /><path d="M42 346Q34 306 54 278" fill="none" stroke="rgb(23,66,118)" stroke-width="1.6" stroke-dasharray="5 4" marker-end="url(#ahn)" /><path d="M155.8 258.3L185.2 275.3L185.2 271.3L155.8 254.3Z" fill="#2A78D6" stroke="none" stroke-width="0.7" stroke-linejoin="round" /><path d="M198.2 267.8L185.2 275.3L185.2 271.3L198.2 263.8Z" fill="rgb(32,90,161)" stroke="none" stroke-width="0.7" stroke-linejoin="round" /><path d="M168.8 246.8L198.2 263.8L185.2 271.3L155.8 254.3Z" fill="rgb(102,158,225)" stroke="none" stroke-width="0.7" stroke-linejoin="round" /><circle cx="159.24699999999999" cy="261.05" r="2.5" fill="#0B0B0B" /><circle cx="166.7523333333333" cy="265.3833333333333" r="2.5" fill="#0B0B0B" /><circle cx="174.25766666666667" cy="269.7166666666667" r="2.5" fill="#0B0B0B" /><circle cx="181.76299999999998" cy="274.05" r="2.5" fill="#0B0B0B" /><path d="M160.1 254.8L184.4 268.8L184.4 256.8L160.1 242.8Z" fill="rgb(203,203,202)" stroke="rgb(148,147,145)" stroke-width="0.6" stroke-linejoin="round" /><path d="M193.9 263.3L184.4 268.8L184.4 256.8L193.9 251.3Z" fill="rgb(175,175,174)" stroke="rgb(148,147,145)" stroke-width="0.6" stroke-linejoin="round" /><path d="M169.6 237.3L193.9 251.3L184.4 256.8L160.1 242.8Z" fill="rgb(234,234,234)" stroke="rgb(148,147,145)" stroke-width="0.6" stroke-linejoin="round" /><path d="M282.8 373.8L295.8 381.3L295.8 377.3L282.8 369.8Z" fill="#2A78D6" stroke="none" stroke-width="0.7" stroke-linejoin="round" /><path d="M325.2 364.3L295.8 381.3L295.8 377.3L325.2 360.3Z" fill="rgb(32,90,161)" stroke="none" stroke-width="0.7" stroke-linejoin="round" /><path d="M312.2 352.8L325.2 360.3L295.8 377.3L282.8 369.8Z" fill="rgb(102,158,225)" stroke="none" stroke-width="0.7" stroke-linejoin="round" /><circle cx="321.75299999999993" cy="367.05" r="2.5" fill="#0B0B0B" /><circle cx="314.24766666666665" cy="371.3833333333333" r="2.5" fill="#0B0B0B" /><circle cx="306.7423333333333" cy="375.7166666666667" r="2.5" fill="#0B0B0B" /><circle cx="299.23699999999997" cy="380.05" r="2.5" fill="#0B0B0B" /><path d="M287.1 369.3L296.6 374.8L296.6 362.8L287.1 357.3Z" fill="rgb(203,203,202)" stroke="rgb(148,147,145)" stroke-width="0.6" stroke-linejoin="round" /><path d="M320.9 360.8L296.6 374.8L296.6 362.8L320.9 348.8Z" fill="rgb(175,175,174)" stroke="rgb(148,147,145)" stroke-width="0.6" stroke-linejoin="round" /><path d="M311.4 343.3L320.9 348.8L296.6 362.8L287.1 357.3Z" fill="rgb(234,234,234)" stroke="rgb(148,147,145)" stroke-width="0.6" stroke-linejoin="round" /><path d="M30.8 377.8L43.8 385.3L43.8 381.3L30.8 373.8Z" fill="#2A78D6" stroke="none" stroke-width="0.7" stroke-linejoin="round" /><path d="M73.2 368.3L43.8 385.3L43.8 381.3L73.2 364.3Z" fill="rgb(32,90,161)" stroke="none" stroke-width="0.7" stroke-linejoin="round" /><path d="M60.2 356.8L73.2 364.3L43.8 381.3L30.8 373.8Z" fill="rgb(102,158,225)" stroke="none" stroke-width="0.7" stroke-linejoin="round" /><circle cx="69.75299999999999" cy="371.05" r="2.5" fill="#0B0B0B" /><circle cx="62.24766666666663" cy="375.3833333333334" r="2.5" fill="#0B0B0B" /><circle cx="54.742333333333335" cy="379.7166666666667" r="2.5" fill="#0B0B0B" /><circle cx="47.23699999999998" cy="384.05" r="2.5" fill="#0B0B0B" /><path d="M35.1 373.3L44.6 378.8L44.6 366.8L35.1 361.3Z" fill="rgb(203,203,202)" stroke="rgb(148,147,145)" stroke-width="0.6" stroke-linejoin="round" /><path d="M68.9 364.8L44.6 378.8L44.6 366.8L68.9 352.8Z" fill="rgb(175,175,174)" stroke="rgb(148,147,145)" stroke-width="0.6" stroke-linejoin="round" /><path d="M59.4 347.3L68.9 352.8L44.6 366.8L35.1 361.3Z" fill="rgb(234,234,234)" stroke="rgb(148,147,145)" stroke-width="0.6" stroke-linejoin="round" /><path d="M68.8 468.3L98.2 485.3L98.2 481.3L68.8 464.3Z" fill="#2A78D6" stroke="none" stroke-width="0.7" stroke-linejoin="round" /><path d="M111.2 477.8L98.2 485.3L98.2 481.3L111.2 473.8Z" fill="rgb(32,90,161)" stroke="none" stroke-width="0.7" stroke-linejoin="round" /><path d="M81.8 456.8L111.2 473.8L98.2 481.3L68.8 464.3Z" fill="rgb(102,158,225)" stroke="none" stroke-width="0.7" stroke-linejoin="round" /><circle cx="72.24700000000003" cy="471.05" r="2.5" fill="#0B0B0B" /><circle cx="79.75233333333337" cy="475.3833333333334" r="2.5" fill="#0B0B0B" /><circle cx="87.25766666666668" cy="479.71666666666664" r="2.5" fill="#0B0B0B" /><circle cx="94.76300000000002" cy="484.05" r="2.5" fill="#0B0B0B" /><path d="M73.1 464.8L97.4 478.8L97.4 466.8L73.1 452.8Z" fill="rgb(203,203,202)" stroke="rgb(148,147,145)" stroke-width="0.6" stroke-linejoin="round" /><path d="M106.9 473.3L97.4 478.8L97.4 466.8L106.9 461.3Z" fill="rgb(175,175,174)" stroke="rgb(148,147,145)" stroke-width="0.6" stroke-linejoin="round" /><path d="M82.6 447.3L106.9 461.3L97.4 466.8L73.1 452.8Z" fill="rgb(234,234,234)" stroke="rgb(148,147,145)" stroke-width="0.6" stroke-linejoin="round" /><path d="M-17.0 575.0L298.2 757.0L-43.0 954.0L-358.2 772.0Z" fill="rgb(187,212,242)" stroke="none" stroke-width="0.7" stroke-linejoin="round" /><path d="M34 722l24 -14" stroke="#FFFFFF" stroke-opacity="0.6" stroke-width="1.2" /><path d="M70 727l24 -14" stroke="#FFFFFF" stroke-opacity="0.6" stroke-width="1.2" /><path d="M106 732l24 -14" stroke="#FFFFFF" stroke-opacity="0.6" stroke-width="1.2" /><g clip-path="url(#dockClip)"><path d="M248.0 524.0L320.7 566.0L130.2 676.0L57.5 634.0Z" fill="rgb(193,192,191)" stroke="none" stroke-width="0.7" stroke-linejoin="round" /><path d="M248.0 502.0L57.5 612.0L57.5 634.0L248.0 524.0Z" fill="rgb(165,165,163)" stroke="none" stroke-width="0.7" stroke-linejoin="round" /><path d="M248.0 502.0L320.7 544.0L320.7 566.0L248.0 524.0Z" fill="rgb(179,178,177)" stroke="none" stroke-width="0.7" stroke-linejoin="round" /><path d="M123.3 612.0L119.8 636.0L119.8 614.0L123.3 590.0Z" fill="rgb(29,84,150)" stroke="none" stroke-width="0.7" stroke-linejoin="round" /><path d="M287.8 561.0L161.4 634.0L161.4 612.0L287.8 539.0Z" fill="rgb(23,66,118)" stroke="none" stroke-width="0.7" stroke-linejoin="round" /><path d="M161.4 634.0L119.8 636.0L119.8 614.0L161.4 612.0Z" fill="rgb(19,54,96)" stroke="none" stroke-width="0.7" stroke-linejoin="round" /><path d="M287.8 561.0L161.4 634.0L161.4 625.0L287.8 552.0Z" fill="#EB6834" stroke="none" stroke-width="0.7" stroke-linejoin="round" /><path d="M161.4 634.0L119.8 636.0L119.8 627.0L161.4 625.0Z" fill="rgb(188,83,42)" stroke="none" stroke-width="0.7" stroke-linejoin="round" /></g><path d="M248.0 502.0L320.7 544.0L130.2 654.0L57.5 612.0Z" fill="none" stroke="rgb(151,151,149)" stroke-width="1" stroke-linejoin="round" /><path d="M48.8 635.0L128.5 681.0L128.5 656.0L48.8 610.0Z" fill="rgb(160,159,158)" stroke="none" stroke-width="0.7" stroke-linejoin="round" /><path d="M133.7 678.0L128.5 681.0L128.5 656.0L133.7 653.0Z" fill="rgb(148,147,145)" stroke="none" stroke-width="0.7" stroke-linejoin="round" /><path d="M54.0 607.0L133.7 653.0L128.5 656.0L48.8 610.0Z" fill="rgb(203,203,202)" stroke="none" stroke-width="0.7" stroke-linejoin="round" /><path d="M158.8 539.5L163.1 542.0L163.1 478.0L158.8 475.5Z" fill="rgb(160,159,158)" stroke="none" stroke-width="0.7" stroke-linejoin="round" /><path d="M167.5 539.5L163.1 542.0L163.1 478.0L167.5 475.5Z" fill="rgb(141,140,138)" stroke="none" stroke-width="0.7" stroke-linejoin="round" /><path d="M163.1 473.0L167.5 475.5L163.1 478.0L158.8 475.5Z" fill="rgb(186,185,184)" stroke="none" stroke-width="0.7" stroke-linejoin="round" /><path d="M148.4 545.5L152.7 548.0L152.7 484.0L148.4 481.5Z" fill="rgb(160,159,158)" stroke="none" stroke-width="0.7" stroke-linejoin="round" /><path d="M157.1 545.5L152.7 548.0L152.7 484.0L157.1 481.5Z" fill="rgb(141,140,138)" stroke="none" stroke-width="0.7" stroke-linejoin="round" /><path d="M152.7 479.0L157.1 481.5L152.7 484.0L148.4 481.5Z" fill="rgb(186,185,184)" stroke="none" stroke-width="0.7" stroke-linejoin="round" /><path d="M123.3 590.0L119.8 614.0L119.8 602.0L123.3 578.0Z" fill="rgb(29,84,150)" stroke="none" stroke-width="0.7" stroke-linejoin="round" /><path d="M287.8 539.0L161.4 612.0L161.4 600.0L287.8 527.0Z" fill="rgb(23,66,118)" stroke="none" stroke-width="0.7" stroke-linejoin="round" /><path d="M161.4 612.0L119.8 614.0L119.8 602.0L161.4 600.0Z" fill="rgb(19,54,96)" stroke="none" stroke-width="0.7" stroke-linejoin="round" /><path d="M249.7 505.0L287.8 527.0L161.4 600.0L119.8 602.0L123.3 578.0Z" fill="rgb(227,227,227)" stroke="rgb(169,168,167)" stroke-width="0.6" stroke-linejoin="round" /><path d="M223.8 522.0L258.4 542.0L258.4 526.0L223.8 506.0Z" fill="rgb(203,203,202)" stroke="rgb(148,147,145)" stroke-width="0.6" stroke-linejoin="round" /><path d="M284.4 527.0L258.4 542.0L258.4 526.0L284.4 511.0Z" fill="rgb(175,175,174)" stroke="rgb(148,147,145)" stroke-width="0.6" stroke-linejoin="round" /><path d="M249.7 491.0L284.4 511.0L258.4 526.0L223.8 506.0Z" fill="rgb(234,234,234)" stroke="rgb(148,147,145)" stroke-width="0.6" stroke-linejoin="round" /><path d="M196.0 538.0L230.7 558.0L230.7 548.0L196.0 528.0Z" fill="rgb(203,203,202)" stroke="rgb(148,147,145)" stroke-width="0.6" stroke-linejoin="round" /><path d="M256.7 543.0L230.7 558.0L230.7 548.0L256.7 533.0Z" fill="rgb(175,175,174)" stroke="rgb(148,147,145)" stroke-width="0.6" stroke-linejoin="round" /><path d="M222.0 513.0L256.7 533.0L230.7 548.0L196.0 528.0Z" fill="rgb(234,234,234)" stroke="rgb(148,147,145)" stroke-width="0.6" stroke-linejoin="round" /><path d="M138.9 571.0L173.5 591.0L173.5 581.0L138.9 561.0Z" fill="rgb(203,203,202)" stroke="rgb(148,147,145)" stroke-width="0.6" stroke-linejoin="round" /><path d="M199.5 576.0L173.5 591.0L173.5 581.0L199.5 566.0Z" fill="rgb(175,175,174)" stroke="rgb(148,147,145)" stroke-width="0.6" stroke-linejoin="round" /><path d="M164.9 546.0L199.5 566.0L173.5 581.0L138.9 561.0Z" fill="rgb(234,234,234)" stroke="rgb(148,147,145)" stroke-width="0.6" stroke-linejoin="round" /><path d="M250.6 592.5L254.9 595.0L254.9 531.0L250.6 528.5Z" fill="rgb(160,159,158)" stroke="none" stroke-width="0.7" stroke-linejoin="round" /><path d="M259.3 592.5L254.9 595.0L254.9 531.0L259.3 528.5Z" fill="rgb(141,140,138)" stroke="none" stroke-width="0.7" stroke-linejoin="round" /><path d="M254.9 526.0L259.3 528.5L254.9 531.0L250.6 528.5Z" fill="rgb(186,185,184)" stroke="none" stroke-width="0.7" stroke-linejoin="round" /><path d="M240.2 598.5L244.5 601.0L244.5 537.0L240.2 534.5Z" fill="rgb(160,159,158)" stroke="none" stroke-width="0.7" stroke-linejoin="round" /><path d="M248.9 598.5L244.5 601.0L244.5 537.0L248.9 534.5Z" fill="rgb(141,140,138)" stroke="none" stroke-width="0.7" stroke-linejoin="round" /><path d="M244.5 532.0L248.9 534.5L244.5 537.0L240.2 534.5Z" fill="rgb(186,185,184)" stroke="none" stroke-width="0.7" stroke-linejoin="round" /><path d="M142.3 479.0L248.0 540.0L248.0 532.0L142.3 471.0Z" fill="rgb(160,159,158)" stroke="none" stroke-width="0.7" stroke-linejoin="round" /><path d="M264.5 530.5L248.0 540.0L248.0 532.0L264.5 522.5Z" fill="rgb(141,140,138)" stroke="none" stroke-width="0.7" stroke-linejoin="round" /><path d="M158.8 461.5L264.5 522.5L248.0 532.0L142.3 471.0Z" fill="rgb(186,185,184)" stroke="none" stroke-width="0.7" stroke-linejoin="round" /><path d="M187.4 495.0L201.2 503.0L201.2 497.0L187.4 489.0Z" fill="rgb(134,133,131)" stroke="none" stroke-width="0.7" stroke-linejoin="round" /><path d="M214.2 495.5L201.2 503.0L201.2 497.0L214.2 489.5Z" fill="rgb(117,116,113)" stroke="none" stroke-width="0.7" stroke-linejoin="round" /><path d="M200.4 481.5L214.2 489.5L201.2 497.0L187.4 489.0Z" fill="rgb(160,159,158)" stroke="none" stroke-width="0.7" stroke-linejoin="round" /><path d="M201.23599999999996 503V517" stroke="rgb(134,133,131)" stroke-width="1" /><path d="M175.3 524.0L206.4 542.0L206.4 532.0L175.3 514.0Z" fill="rgb(203,203,202)" stroke="rgb(148,147,145)" stroke-width="0.6" stroke-linejoin="round" /><path d="M227.2 530.0L206.4 542.0L206.4 532.0L227.2 520.0Z" fill="rgb(175,175,174)" stroke="rgb(148,147,145)" stroke-width="0.6" stroke-linejoin="round" /><path d="M196.0 502.0L227.2 520.0L206.4 532.0L175.3 514.0Z" fill="rgb(234,234,234)" stroke="rgb(148,147,145)" stroke-width="0.6" stroke-linejoin="round" /></g><g data-box="label"><rect x="25.666362762451172" y="133" width="124.66727447509766" height="26" rx="4" fill="#FFFFFF" fill-opacity="0.94" stroke="#C9C8C4" stroke-width="0.8" /><text x="88" y="151" font-size="17.08188457599773" fill="#0B0B0B" font-weight="700" text-anchor="middle"><tspan>Assembly shop</tspan></text></g><g data-box="label"><rect x="179.75282287597656" y="139" width="136.49435424804688" height="26" rx="4" fill="#FFFFFF" fill-opacity="0.94" stroke="#C9C8C4" stroke-width="0.8" /><text x="248" y="157" font-size="17.08188457599773" fill="#0B0B0B" font-weight="700" text-anchor="middle"><tspan>Paint / outfitting</tspan></text></g><g data-box="label"><rect x="126.51754379272461" y="401" width="90.96491241455078" height="26" rx="4" fill="#FFFFFF" fill-opacity="0.94" stroke="#C9C8C4" stroke-width="0.8" /><text x="172" y="419" font-size="17.08188457599773" fill="#0B0B0B" font-weight="700" text-anchor="middle"><tspan>Stockyard</tspan></text></g><g data-box="label"><rect x="204.97770309448242" y="635" width="118.04459381103516" height="26" rx="4" fill="#FFFFFF" fill-opacity="0.94" stroke="#C9C8C4" stroke-width="0.8" /><text x="264" y="653" font-size="17.08188457599773" fill="#0B0B0B" font-weight="700" text-anchor="middle"><tspan>Building dock</tspan></text></g></g><g data-box="panel"><rect x="341.3333333333333" y="12" width="317.3333333333333" height="720" rx="0" fill="#FFFFFF" stroke="#C9C8C4" stroke-width="1.2" /><rect x="341.3333333333333" y="12" width="317.3333333333333" height="46" fill="rgb(23,66,118)" /><path d="M383.3333333333333 21V49" stroke="#FFFFFF" stroke-width="1.4" stroke-opacity="0.75" /><text x="362.3333333333333" y="43" font-size="21.352355719997163" fill="#FFFFFF" font-weight="700" text-anchor="middle"><tspan>2</tspan></text><text x="395.3333333333333" y="43" font-size="21.352355719997163" fill="#FFFFFF" font-weight="700" text-anchor="start"><tspan>Three fleet options</tspan></text><g data-box="option"><rect x="353.3333333333333" y="68" width="293.3333333333333" height="202" rx="7" fill="#FFFFFF" stroke="#C9C8C4" stroke-width="1.2" /><path d="M360.3333333333333 68H639.6666666666666Q646.6666666666666 68 646.6666666666666 75V104H353.3333333333333V75Q353.3333333333333 68 360.3333333333333 68Z" fill="rgb(225,236,249)" /><circle cx="375.3333333333333" cy="86" r="13" fill="rgb(23,66,118)" /><text x="375.3333333333333" y="93.09965827689905" text-anchor="middle" font-size="20.284737933997306" font-weight="700" fill="#FFFFFF">A</text><text x="397.3333333333333" y="93" font-size="20.284737933997306" fill="#0B0B0B" font-weight="700" text-anchor="start"><tspan>Heavy units only</tspan></text><g><path d="M390.4 167.5L444.5 198.8L444.5 193.8L390.4 162.5Z" fill="#2A78D6" stroke="none" stroke-width="0.7" stroke-linejoin="round" /><path d="M468.3 185.0L444.5 198.8L444.5 193.8L468.3 180.0Z" fill="rgb(32,90,161)" stroke="none" stroke-width="0.7" stroke-linejoin="round" /><path d="M414.2 148.8L468.3 180.0L444.5 193.8L390.4 162.5Z" fill="rgb(102,158,225)" stroke="none" stroke-width="0.7" stroke-linejoin="round" /><circle cx="394.6933333333333" cy="171" r="2.875" fill="#0B0B0B" /><circle cx="403.7863333333333" cy="176.25" r="2.875" fill="#0B0B0B" /><circle cx="412.8793333333333" cy="181.5" r="2.875" fill="#0B0B0B" /><circle cx="421.9723333333333" cy="186.75" r="2.875" fill="#0B0B0B" /><circle cx="431.06533333333334" cy="192" r="2.875" fill="#0B0B0B" /><circle cx="440.1583333333333" cy="197.25" r="2.875" fill="#0B0B0B" /><path d="M395.8 163.1L443.4 190.6L443.4 165.6L395.8 138.1Z" fill="rgb(203,203,202)" stroke="rgb(148,147,145)" stroke-width="0.6" stroke-linejoin="round" /><path d="M462.9 179.4L443.4 190.6L443.4 165.6L462.9 154.4Z" fill="rgb(175,175,174)" stroke="rgb(148,147,145)" stroke-width="0.6" stroke-linejoin="round" /><path d="M415.3 126.9L462.9 154.4L443.4 165.6L395.8 138.1Z" fill="rgb(234,234,234)" stroke="rgb(148,147,145)" stroke-width="0.6" stroke-linejoin="round" /><path d="M532.4 167.5L586.5 198.8L586.5 193.8L532.4 162.5Z" fill="#2A78D6" stroke="none" stroke-width="0.7" stroke-linejoin="round" /><path d="M610.3 185.0L586.5 198.8L586.5 193.8L610.3 180.0Z" fill="rgb(32,90,161)" stroke="none" stroke-width="0.7" stroke-linejoin="round" /><path d="M556.2 148.8L610.3 180.0L586.5 193.8L532.4 162.5Z" fill="rgb(102,158,225)" stroke="none" stroke-width="0.7" stroke-linejoin="round" /><circle cx="536.6933333333333" cy="171" r="2.875" fill="#0B0B0B" /><circle cx="545.7863333333332" cy="176.25" r="2.875" fill="#0B0B0B" /><circle cx="554.8793333333333" cy="181.5" r="2.875" fill="#0B0B0B" /><circle cx="563.9723333333333" cy="186.75" r="2.875" fill="#0B0B0B" /><circle cx="573.0653333333332" cy="192" r="2.875" fill="#0B0B0B" /><circle cx="582.1583333333333" cy="197.25" r="2.875" fill="#0B0B0B" /><path d="M551.8 168.8L575.7 182.5L575.7 167.5L551.8 153.8Z" fill="rgb(203,203,202)" stroke="rgb(148,147,145)" stroke-width="0.6" stroke-linejoin="round" /><path d="M590.8 173.8L575.7 182.5L575.7 167.5L590.8 158.8Z" fill="rgb(175,175,174)" stroke="rgb(148,147,145)" stroke-width="0.6" stroke-linejoin="round" /><path d="M567.0 145.0L590.8 158.8L575.7 167.5L551.8 153.8Z" fill="rgb(234,234,234)" stroke="rgb(148,147,145)" stroke-width="0.6" stroke-linejoin="round" /></g><text x="429.3333333333333" y="119" font-size="17.08188457599773" fill="#0B0B0B" font-weight="400" text-anchor="middle"><tspan>425 t, heavy block</tspan></text><text x="571.3333333333333" y="119" font-size="17.08188457599773" fill="#0B0B0B" font-weight="400" text-anchor="middle"><tspan>425 t, light block</tspan></text><g data-box="caption"><rect x="363.3333333333333" y="210" width="273.3333333333333" height="54" rx="5" fill="rgb(240,246,252)" stroke="rgb(202,221,245)" stroke-width="1.2" /><text x="500" y="231" font-size="18.14950236199759" fill="#0B0B0B" font-weight="700" text-anchor="middle"><tspan>Every block carried alone;</tspan></text><text x="500" y="252" font-size="18.14950236199759" fill="#0B0B0B" font-weight="700" text-anchor="middle"><tspan>higher price per vehicle</tspan></text></g></g><g data-box="option"><rect x="353.3333333333333" y="278" width="293.3333333333333" height="232" rx="7" fill="#FFFFFF" stroke="#C9C8C4" stroke-width="1.2" /><path d="M360.3333333333333 278H639.6666666666666Q646.6666666666666 278 646.6666666666666 285V314H353.3333333333333V285Q353.3333333333333 278 360.3333333333333 278Z" fill="rgb(225,236,249)" /><circle cx="375.3333333333333" cy="296" r="13" fill="rgb(23,66,118)" /><text x="375.3333333333333" y="303.09965827689905" text-anchor="middle" font-size="20.284737933997306" font-weight="700" fill="#FFFFFF">B</text><text x="397.3333333333333" y="303" font-size="20.284737933997306" fill="#0B0B0B" font-weight="700" text-anchor="start"><tspan>Light units, coupled</tspan></text><g><path d="M378.0 372.9L412.6 392.9L412.6 387.9L378.0 367.9Z" fill="#2A78D6" stroke="none" stroke-width="0.7" stroke-linejoin="round" /><path d="M436.4 379.1L412.6 392.9L412.6 387.9L436.4 374.1Z" fill="rgb(32,90,161)" stroke="none" stroke-width="0.7" stroke-linejoin="round" /><path d="M401.8 354.1L436.4 374.1L412.6 387.9L378.0 367.9Z" fill="rgb(102,158,225)" stroke="none" stroke-width="0.7" stroke-linejoin="round" /><circle cx="382.2908333333333" cy="376.375" r="2.875" fill="#0B0B0B" /><circle cx="390.9508333333333" cy="381.375" r="2.875" fill="#0B0B0B" /><circle cx="399.6108333333333" cy="386.375" r="2.875" fill="#0B0B0B" /><circle cx="408.2708333333333" cy="391.375" r="2.875" fill="#0B0B0B" /><path d="M434.3 405.4L468.9 425.4L468.9 420.4L434.3 400.4Z" fill="#2A78D6" stroke="none" stroke-width="0.7" stroke-linejoin="round" /><path d="M492.7 411.6L468.9 425.4L468.9 420.4L492.7 406.6Z" fill="rgb(32,90,161)" stroke="none" stroke-width="0.7" stroke-linejoin="round" /><path d="M458.1 386.6L492.7 406.6L468.9 420.4L434.3 400.4Z" fill="rgb(102,158,225)" stroke="none" stroke-width="0.7" stroke-linejoin="round" /><circle cx="438.5808333333333" cy="408.875" r="2.875" fill="#0B0B0B" /><circle cx="447.2408333333333" cy="413.875" r="2.875" fill="#0B0B0B" /><circle cx="455.9008333333333" cy="418.875" r="2.875" fill="#0B0B0B" /><circle cx="464.56083333333333" cy="423.875" r="2.875" fill="#0B0B0B" /><path d="M413.7 391.6L435.3 404.1L435.3 401.0L413.7 388.5Z" fill="#0B0B0B" stroke="none" stroke-width="0.7" stroke-linejoin="round" /><path d="M439.7 401.6L435.3 404.1L435.3 401.0L439.7 398.5Z" fill="#0B0B0B" stroke="none" stroke-width="0.7" stroke-linejoin="round" /><path d="M418.0 386.0L439.7 398.5L435.3 401.0L413.7 388.5Z" fill="#0B0B0B" stroke="none" stroke-width="0.7" stroke-linejoin="round" /><path d="M388.8 371.6L462.4 414.1L462.4 389.1L388.8 346.6Z" fill="rgb(203,203,202)" stroke="rgb(148,147,145)" stroke-width="0.6" stroke-linejoin="round" /><path d="M481.9 402.9L462.4 414.1L462.4 389.1L481.9 377.9Z" fill="rgb(175,175,174)" stroke="rgb(148,147,145)" stroke-width="0.6" stroke-linejoin="round" /><path d="M408.3 335.4L481.9 377.9L462.4 389.1L388.8 346.6Z" fill="rgb(234,234,234)" stroke="rgb(148,147,145)" stroke-width="0.6" stroke-linejoin="round" /><path d="M563.8 390.8L568.2 393.3L568.2 383.3L563.8 380.8Z" fill="rgb(151,151,149)" stroke="none" stroke-width="0.7" stroke-linejoin="round" /><path d="M585.5 383.3L568.2 393.3L568.2 383.3L585.5 373.3Z" fill="rgb(134,133,131)" stroke="none" stroke-width="0.7" stroke-linejoin="round" /><path d="M581.2 370.8L585.5 373.3L568.2 383.3L563.8 380.8Z" fill="rgb(169,168,167)" stroke="none" stroke-width="0.7" stroke-linejoin="round" /><path d="M581.2 400.8L585.5 403.3L585.5 393.3L581.2 390.8Z" fill="rgb(151,151,149)" stroke="none" stroke-width="0.7" stroke-linejoin="round" /><path d="M602.8 393.3L585.5 403.3L585.5 393.3L602.8 383.3Z" fill="rgb(134,133,131)" stroke="none" stroke-width="0.7" stroke-linejoin="round" /><path d="M598.5 380.8L602.8 383.3L585.5 393.3L581.2 390.8Z" fill="rgb(169,168,167)" stroke="none" stroke-width="0.7" stroke-linejoin="round" /><path d="M563.8 379.5L587.7 393.3L587.7 378.3L563.8 364.5Z" fill="rgb(203,203,202)" stroke="rgb(148,147,145)" stroke-width="0.6" stroke-linejoin="round" /><path d="M602.8 384.5L587.7 393.3L587.7 378.3L602.8 369.5Z" fill="rgb(175,175,174)" stroke="rgb(148,147,145)" stroke-width="0.6" stroke-linejoin="round" /><path d="M579.0 355.8L602.8 369.5L587.7 378.3L563.8 364.5Z" fill="rgb(234,234,234)" stroke="rgb(148,147,145)" stroke-width="0.6" stroke-linejoin="round" /></g><text x="433.3333333333333" y="329" font-size="17.08188457599773" fill="#0B0B0B" font-weight="400" text-anchor="middle"><tspan>2 × 270 t, heavy block</tspan></text><text x="581.3333333333333" y="329" font-size="17.08188457599773" fill="#0B0B0B" font-weight="400" text-anchor="middle"><tspan>light block waits</tspan></text><text x="500" y="444" font-size="17.08188457599773" fill="#EB6834" font-weight="700" text-anchor="middle"><tspan>alignment </tspan><tspan font-style="italic">δ</tspan><tspan> before each coupled lift</tspan></text><g data-box="caption"><rect x="363.3333333333333" y="450" width="273.3333333333333" height="54" rx="5" fill="rgb(240,246,252)" stroke="rgb(202,221,245)" stroke-width="1.2" /><text x="500" y="471" font-size="18.14950236199759" fill="#0B0B0B" font-weight="700" text-anchor="middle"><tspan>Cheaper per vehicle; each heavy</tspan></text><text x="500" y="492" font-size="18.14950236199759" fill="#0B0B0B" font-weight="700" text-anchor="middle"><tspan>lift holds two vehicles and crews</tspan></text></g></g><g data-box="option"><rect x="353.3333333333333" y="518" width="293.3333333333333" height="202" rx="7" fill="#FFFFFF" stroke="#C9C8C4" stroke-width="1.2" /><path d="M360.3333333333333 518H639.6666666666666Q646.6666666666666 518 646.6666666666666 525V554H353.3333333333333V525Q353.3333333333333 518 360.3333333333333 518Z" fill="rgb(225,236,249)" /><circle cx="375.3333333333333" cy="536" r="13" fill="rgb(23,66,118)" /><text x="375.3333333333333" y="543.099658276899" text-anchor="middle" font-size="20.284737933997306" font-weight="700" fill="#FFFFFF">C</text><text x="397.3333333333333" y="543" font-size="20.284737933997306" fill="#0B0B0B" font-weight="700" text-anchor="start"><tspan>Light and heavy units</tspan></text><g><path d="M390.4 617.5L444.5 648.8L444.5 643.8L390.4 612.5Z" fill="#2A78D6" stroke="none" stroke-width="0.7" stroke-linejoin="round" /><path d="M468.3 635.0L444.5 648.8L444.5 643.8L468.3 630.0Z" fill="rgb(32,90,161)" stroke="none" stroke-width="0.7" stroke-linejoin="round" /><path d="M414.2 598.8L468.3 630.0L444.5 643.8L390.4 612.5Z" fill="rgb(102,158,225)" stroke="none" stroke-width="0.7" stroke-linejoin="round" /><circle cx="394.6933333333333" cy="621" r="2.875" fill="#0B0B0B" /><circle cx="403.7863333333333" cy="626.25" r="2.875" fill="#0B0B0B" /><circle cx="412.8793333333333" cy="631.5" r="2.875" fill="#0B0B0B" /><circle cx="421.9723333333333" cy="636.75" r="2.875" fill="#0B0B0B" /><circle cx="431.06533333333334" cy="642" r="2.875" fill="#0B0B0B" /><circle cx="440.1583333333333" cy="647.25" r="2.875" fill="#0B0B0B" /><path d="M395.8 613.1L443.4 640.6L443.4 615.6L395.8 588.1Z" fill="rgb(203,203,202)" stroke="rgb(148,147,145)" stroke-width="0.6" stroke-linejoin="round" /><path d="M462.9 629.4L443.4 640.6L443.4 615.6L462.9 604.4Z" fill="rgb(175,175,174)" stroke="rgb(148,147,145)" stroke-width="0.6" stroke-linejoin="round" /><path d="M415.3 576.9L462.9 604.4L443.4 615.6L395.8 588.1Z" fill="rgb(234,234,234)" stroke="rgb(148,147,145)" stroke-width="0.6" stroke-linejoin="round" /><path d="M541.0 622.5L577.8 643.8L577.8 638.8L541.0 617.5Z" fill="#2A78D6" stroke="none" stroke-width="0.7" stroke-linejoin="round" /><path d="M601.6 630.0L577.8 643.8L577.8 638.8L601.6 625.0Z" fill="rgb(32,90,161)" stroke="none" stroke-width="0.7" stroke-linejoin="round" /><path d="M564.8 603.8L601.6 625.0L577.8 638.8L541.0 617.5Z" fill="rgb(102,158,225)" stroke="none" stroke-width="0.7" stroke-linejoin="round" /><circle cx="545.3533333333332" cy="626" r="2.875" fill="#0B0B0B" /><circle cx="554.7349999999999" cy="631.4166666666666" r="2.875" fill="#0B0B0B" /><circle cx="564.1166666666666" cy="636.8333333333334" r="2.875" fill="#0B0B0B" /><circle cx="573.4983333333332" cy="642.25" r="2.875" fill="#0B0B0B" /><path d="M551.8 618.8L575.7 632.5L575.7 617.5L551.8 603.8Z" fill="rgb(203,203,202)" stroke="rgb(148,147,145)" stroke-width="0.6" stroke-linejoin="round" /><path d="M590.8 623.8L575.7 632.5L575.7 617.5L590.8 608.8Z" fill="rgb(175,175,174)" stroke="rgb(148,147,145)" stroke-width="0.6" stroke-linejoin="round" /><path d="M567.0 595.0L590.8 608.8L575.7 617.5L551.8 603.8Z" fill="rgb(234,234,234)" stroke="rgb(148,147,145)" stroke-width="0.6" stroke-linejoin="round" /></g><text x="429.3333333333333" y="569" font-size="17.08188457599773" fill="#0B0B0B" font-weight="400" text-anchor="middle"><tspan>425 t, heavy block</tspan></text><text x="571.3333333333333" y="569" font-size="17.08188457599773" fill="#0B0B0B" font-weight="400" text-anchor="middle"><tspan>270 t, light block</tspan></text><g data-box="caption"><rect x="363.3333333333333" y="660" width="273.3333333333333" height="54" rx="5" fill="rgb(240,246,252)" stroke="rgb(202,221,245)" stroke-width="1.2" /><text x="500" y="681" font-size="18.14950236199759" fill="#0B0B0B" font-weight="700" text-anchor="middle"><tspan>Light blocks on light units;</tspan></text><text x="500" y="702" font-size="18.14950236199759" fill="#0B0B0B" font-weight="700" text-anchor="middle"><tspan>how many heavy units to buy?</tspan></text></g></g></g><g data-box="panel"><rect x="670.6666666666666" y="12" width="317.3333333333333" height="720" rx="0" fill="#FFFFFF" stroke="#C9C8C4" stroke-width="1.2" /><rect x="670.6666666666666" y="12" width="317.3333333333333" height="46" fill="rgb(23,66,118)" /><path d="M712.6666666666666 21V49" stroke="#FFFFFF" stroke-width="1.4" stroke-opacity="0.75" /><text x="691.6666666666666" y="43" font-size="21.352355719997163" fill="#FFFFFF" font-weight="700" text-anchor="middle"><tspan>3</tspan></text><text x="724.6666666666666" y="43" font-size="21.352355719997163" fill="#FFFFFF" font-weight="700" text-anchor="start"><tspan>Equal-service comparison</tspan></text><g data-box="question"><rect x="682.6666666666666" y="68" width="293.3333333333333" height="138" rx="7" fill="rgb(23,66,118)" stroke="rgb(23,66,118)" stroke-width="1.2" /><text x="829.3333333333333" y="98" font-size="22.284737933997306" fill="#FFFFFF" font-weight="700" text-anchor="middle"><tspan>Which fleet costs least</tspan></text><text x="829.3333333333333" y="124" font-size="22.284737933997306" fill="#FFFFFF" font-weight="700" text-anchor="middle"><tspan>at equal service?</tspan></text><g data-box="options"><rect x="694.6666666666666" y="138" width="269.3333333333333" height="56" rx="5" fill="#FFFFFF" stroke="#FFFFFF" stroke-width="1.2" /><text x="829.3333333333333" y="162" font-size="18.14950236199759" fill="#0B0B0B" font-weight="700" text-anchor="middle"><tspan>heavy (A), coupled light (B)</tspan></text><text x="829.3333333333333" y="184" font-size="18.14950236199759" fill="#0B0B0B" font-weight="700" text-anchor="middle"><tspan>or light and heavy (C)</tspan></text></g></g><circle cx="702.6666666666666" cy="246.5" r="16" fill="rgb(221,233,248)" /><text x="702.6666666666666" y="253.5" font-size="22.284737933997306" fill="rgb(23,66,118)" font-weight="700" text-anchor="middle"><tspan>1</tspan></text><text x="730.6666666666666" y="252.5" font-size="20.284737933997306" fill="rgb(23,66,118)" font-weight="700" text-anchor="start"><tspan>Same service</tspan></text><text x="730.6666666666666" y="280.5" font-size="18.14950236199759" fill="#52514E" font-weight="400" text-anchor="start"><tspan>≥ 95% of blocks on time and</tspan></text><text x="730.6666666666666" y="302.5" font-size="18.14950236199759" fill="#52514E" font-weight="400" text-anchor="start"><tspan>no block over 120 min late,</tspan></text><text x="730.6666666666666" y="324.5" font-size="18.14950236199759" fill="#52514E" font-weight="400" text-anchor="start"><tspan>for every candidate fleet.</tspan></text><path d="M686.6666666666666 341H972" stroke="#C9C8C4" stroke-width="1" /><circle cx="702.6666666666666" cy="375.5" r="16" fill="rgb(221,233,248)" /><text x="702.6666666666666" y="382.5" font-size="22.284737933997306" fill="rgb(23,66,118)" font-weight="700" text-anchor="middle"><tspan>2</tspan></text><text x="730.6666666666666" y="381.5" font-size="20.284737933997306" fill="rgb(23,66,118)" font-weight="700" text-anchor="start"><tspan>Count found</tspan></text><text x="730.6666666666666" y="409.5" font-size="18.14950236199759" fill="#52514E" font-weight="400" text-anchor="start"><tspan>Daily schedules give the</tspan></text><text x="730.6666666666666" y="431.5" font-size="18.14950236199759" fill="#52514E" font-weight="400" text-anchor="start"><tspan>smallest count found to</tspan></text><text x="730.6666666666666" y="453.5" font-size="18.14950236199759" fill="#52514E" font-weight="400" text-anchor="start"><tspan>qualify for each fleet.</tspan></text><path d="M686.6666666666666 470H972" stroke="#C9C8C4" stroke-width="1" /><circle cx="702.6666666666666" cy="504.5" r="16" fill="rgb(221,233,248)" /><text x="702.6666666666666" y="511.5" font-size="22.284737933997306" fill="rgb(23,66,118)" font-weight="700" text-anchor="middle"><tspan>3</tspan></text><text x="730.6666666666666" y="510.5" font-size="20.284737933997306" fill="rgb(23,66,118)" font-weight="700" text-anchor="start"><tspan>Least daily cost</tspan></text><text x="730.6666666666666" y="538.5" font-size="18.14950236199759" fill="#52514E" font-weight="400" text-anchor="start"><tspan>Capital from tender awards</tspan></text><text x="730.6666666666666" y="560.5" font-size="18.14950236199759" fill="#52514E" font-weight="400" text-anchor="start"><tspan>plus crew labour, compared</tspan></text><text x="730.6666666666666" y="582.5" font-size="18.14950236199759" fill="#52514E" font-weight="400" text-anchor="start"><tspan>across cost scenarios.</tspan></text><path d="M686.6666666666666 599H972" stroke="#C9C8C4" stroke-width="1" /><circle cx="702.6666666666666" cy="633.5" r="16" fill="rgb(221,233,248)" /><text x="702.6666666666666" y="640.5" font-size="22.284737933997306" fill="rgb(23,66,118)" font-weight="700" text-anchor="middle"><tspan>4</tspan></text><text x="730.6666666666666" y="639.5" font-size="20.284737933997306" fill="rgb(23,66,118)" font-weight="700" text-anchor="start"><tspan>Occupancy model</tspan></text><text x="730.6666666666666" y="667.5" font-size="18.14950236199759" fill="#52514E" font-weight="400" text-anchor="start"><tspan>A fluid model of transporter</tspan></text><text x="730.6666666666666" y="689.5" font-size="18.14950236199759" fill="#52514E" font-weight="400" text-anchor="start"><tspan>occupancy explains the cost</tspan></text><text x="730.6666666666666" y="711.5" font-size="18.14950236199759" fill="#52514E" font-weight="400" text-anchor="start"><tspan>differences between fleets.</tspan></text></g></svg>